<svg width="20" height="20" viewBox="0 0 20 20" fill="none" xmlns="http://www.w3.org/2000/svg">
<g id="mail (2)" clip-path="url(#clip0_14_14)">
<g id="Group">
<path id="Vector" opacity="0.965" fill-rule="evenodd" clip-rule="evenodd" d="M19.9805 4.04297C19.9805 8.00129 19.9805 11.9597 19.9805 15.918C19.8535 16.2987 19.5931 16.5396 19.1992 16.6406C13.0534 16.6667 6.90754 16.6667 0.761719 16.6406C0.367845 16.5396 0.107429 16.2987 -0.0195312 15.918C-0.0195312 11.9597 -0.0195312 8.00129 -0.0195312 4.04297C0.107429 3.66224 0.367845 3.42136 0.761719 3.32031C6.90754 3.29427 13.0534 3.29427 19.1992 3.32031C19.5931 3.42136 19.8535 3.66224 19.9805 4.04297ZM1.46484 4.12109C7.13539 4.07555 12.8125 4.06902 18.4961 4.10156C15.8659 6.08074 13.2357 8.05988 10.6055 10.0391C10.1888 10.3255 9.77215 10.3255 9.35547 10.0391C6.73109 8.05656 4.10086 6.08391 1.46484 4.12109ZM0.761719 4.62891C3.47471 6.64344 6.18305 8.66817 8.88672 10.7031C9.4341 11.0498 10.02 11.128 10.6445 10.9375C10.8395 10.8531 11.0218 10.7489 11.1914 10.625C13.8437 8.61203 16.5064 6.61336 19.1797 4.62891C19.2057 8.17059 19.2057 11.7122 19.1797 15.2539C17.7734 13.5091 16.3672 11.7643 14.9609 10.0195C14.6769 9.7459 14.4295 9.77192 14.2188 10.0977C14.1831 10.252 14.2092 10.3953 14.2969 10.5273C15.7357 12.3047 17.1745 14.082 18.6133 15.8594C12.8581 15.8854 7.10285 15.8854 1.34766 15.8594C2.83596 14.0478 4.30082 12.2184 5.74219 10.3711C5.80559 9.98277 5.64281 9.80699 5.25391 9.84375C5.15227 9.87824 5.06762 9.93684 5 10.0195C3.59375 11.7643 2.1875 13.5091 0.78125 15.2539C0.761719 11.7123 0.755207 8.17059 0.761719 4.62891Z" fill="#1C4531"/>
</g>
</g>
<defs>
<clipPath id="clip0_14_14">
<rect width="20" height="20" fill="white"/>
</clipPath>
</defs>
</svg>
